<mxfile host="app.diagrams.net" modified="2021-09-17T13:50:10.345Z" agent="5.0 (Macintosh; Intel Mac OS X 10_15_7) AppleWebKit/537.36 (KHTML, like Gecko) Chrome/93.0.4577.82 Safari/537.36" etag="bc2iP29e98qwbQbcRK30" version="15.2.9" type="github">
  <diagram id="eCEPqgotwZQc1uM3H5h4" name="Merton">
    <mxGraphModel dx="710" dy="669" grid="1" gridSize="10" guides="1" tooltips="1" connect="1" arrows="1" fold="1" page="1" pageScale="1" pageWidth="10000" pageHeight="400" math="0" shadow="0">
      <root>
        <mxCell id="0" />
        <mxCell id="1" parent="0" />
        <mxCell id="sOK9xL0Q-kKHLEvzhYfY-1" value="You You Xue" style="whiteSpace=wrap;html=1;" parent="1" vertex="1">
          <mxGeometry x="40" y="700" width="120" height="60" as="geometry" />
        </mxCell>
        <mxCell id="sOK9xL0Q-kKHLEvzhYfY-2" value="Gracie Forrest" style="whiteSpace=wrap;html=1;" parent="1" vertex="1">
          <mxGeometry x="200" y="700" width="120" height="60" as="geometry" />
        </mxCell>
        <mxCell id="sOK9xL0Q-kKHLEvzhYfY-4" value="Declan Nelson" style="whiteSpace=wrap;html=1;" parent="1" vertex="1">
          <mxGeometry x="40" y="600" width="120" height="60" as="geometry" />
        </mxCell>
        <mxCell id="sOK9xL0Q-kKHLEvzhYfY-5" value="Max Gunther" style="whiteSpace=wrap;html=1;" parent="1" vertex="1">
          <mxGeometry x="200" y="600" width="120" height="60" as="geometry" />
        </mxCell>
        <mxCell id="sOK9xL0Q-kKHLEvzhYfY-6" value="" style="endArrow=none;html=1;exitX=1;exitY=0.5;exitDx=0;exitDy=0;entryX=0;entryY=0.5;entryDx=0;entryDy=0;" parent="1" source="sOK9xL0Q-kKHLEvzhYfY-4" target="sOK9xL0Q-kKHLEvzhYfY-5" edge="1">
          <mxGeometry width="50" height="50" relative="1" as="geometry">
            <mxPoint x="410" y="900" as="sourcePoint" />
            <mxPoint x="460" y="850" as="targetPoint" />
          </mxGeometry>
        </mxCell>
        <mxCell id="sOK9xL0Q-kKHLEvzhYfY-7" value="" style="endArrow=none;html=1;" parent="1" edge="1">
          <mxGeometry width="50" height="50" relative="1" as="geometry">
            <mxPoint x="180" y="680" as="sourcePoint" />
            <mxPoint x="180" y="630" as="targetPoint" />
          </mxGeometry>
        </mxCell>
        <mxCell id="sOK9xL0Q-kKHLEvzhYfY-8" value="" style="endArrow=none;html=1;entryX=0.5;entryY=0;entryDx=0;entryDy=0;" parent="1" target="sOK9xL0Q-kKHLEvzhYfY-2" edge="1">
          <mxGeometry width="50" height="50" relative="1" as="geometry">
            <mxPoint x="100" y="700" as="sourcePoint" />
            <mxPoint x="270" y="680" as="targetPoint" />
            <Array as="points">
              <mxPoint x="100" y="680" />
              <mxPoint x="260" y="680" />
            </Array>
          </mxGeometry>
        </mxCell>
        <mxCell id="sOK9xL0Q-kKHLEvzhYfY-9" value="Yi Jun Eng" style="whiteSpace=wrap;html=1;" parent="1" vertex="1">
          <mxGeometry x="1160" y="700" width="120" height="60" as="geometry" />
        </mxCell>
        <mxCell id="sOK9xL0Q-kKHLEvzhYfY-10" value="Shahed Dakak" style="whiteSpace=wrap;html=1;" parent="1" vertex="1">
          <mxGeometry x="1320" y="700" width="120" height="60" as="geometry" />
        </mxCell>
        <mxCell id="sOK9xL0Q-kKHLEvzhYfY-11" value="Mariana Gee Olmedilla" style="whiteSpace=wrap;html=1;" parent="1" vertex="1">
          <mxGeometry x="1160" y="600" width="120" height="60" as="geometry" />
        </mxCell>
        <mxCell id="sOK9xL0Q-kKHLEvzhYfY-12" value="Holly Plater" style="whiteSpace=wrap;html=1;" parent="1" vertex="1">
          <mxGeometry x="1320" y="600" width="120" height="60" as="geometry" />
        </mxCell>
        <mxCell id="sOK9xL0Q-kKHLEvzhYfY-13" value="" style="endArrow=none;html=1;exitX=1;exitY=0.5;exitDx=0;exitDy=0;entryX=0;entryY=0.5;entryDx=0;entryDy=0;" parent="1" source="sOK9xL0Q-kKHLEvzhYfY-11" target="sOK9xL0Q-kKHLEvzhYfY-12" edge="1">
          <mxGeometry width="50" height="50" relative="1" as="geometry">
            <mxPoint x="1530" y="900" as="sourcePoint" />
            <mxPoint x="1580" y="850" as="targetPoint" />
          </mxGeometry>
        </mxCell>
        <mxCell id="sOK9xL0Q-kKHLEvzhYfY-14" value="" style="endArrow=none;html=1;" parent="1" edge="1">
          <mxGeometry width="50" height="50" relative="1" as="geometry">
            <mxPoint x="1300" y="680" as="sourcePoint" />
            <mxPoint x="1300" y="630" as="targetPoint" />
          </mxGeometry>
        </mxCell>
        <mxCell id="sOK9xL0Q-kKHLEvzhYfY-15" value="" style="endArrow=none;html=1;entryX=0.5;entryY=0;entryDx=0;entryDy=0;" parent="1" target="sOK9xL0Q-kKHLEvzhYfY-10" edge="1">
          <mxGeometry width="50" height="50" relative="1" as="geometry">
            <mxPoint x="1220" y="700" as="sourcePoint" />
            <mxPoint x="1390" y="680" as="targetPoint" />
            <Array as="points">
              <mxPoint x="1220" y="680" />
              <mxPoint x="1380" y="680" />
            </Array>
          </mxGeometry>
        </mxCell>
        <mxCell id="sOK9xL0Q-kKHLEvzhYfY-16" value="Poppy Thody" style="whiteSpace=wrap;html=1;" parent="1" vertex="1">
          <mxGeometry x="1480" y="700" width="120" height="60" as="geometry" />
        </mxCell>
        <mxCell id="sOK9xL0Q-kKHLEvzhYfY-17" value="Harris Leung" style="whiteSpace=wrap;html=1;" parent="1" vertex="1">
          <mxGeometry x="1640" y="700" width="120" height="60" as="geometry" />
        </mxCell>
        <mxCell id="sOK9xL0Q-kKHLEvzhYfY-18" value="Rachel Blackhurst" style="whiteSpace=wrap;html=1;" parent="1" vertex="1">
          <mxGeometry x="1480" y="600" width="120" height="60" as="geometry" />
        </mxCell>
        <mxCell id="sOK9xL0Q-kKHLEvzhYfY-19" value="Tobias &quot;Toby&quot; Loader" style="whiteSpace=wrap;html=1;" parent="1" vertex="1">
          <mxGeometry x="1640" y="600" width="120" height="60" as="geometry" />
        </mxCell>
        <mxCell id="sOK9xL0Q-kKHLEvzhYfY-20" value="" style="endArrow=none;html=1;exitX=1;exitY=0.5;exitDx=0;exitDy=0;entryX=0;entryY=0.5;entryDx=0;entryDy=0;" parent="1" source="sOK9xL0Q-kKHLEvzhYfY-18" target="sOK9xL0Q-kKHLEvzhYfY-19" edge="1">
          <mxGeometry width="50" height="50" relative="1" as="geometry">
            <mxPoint x="1850" y="900" as="sourcePoint" />
            <mxPoint x="1900" y="850" as="targetPoint" />
          </mxGeometry>
        </mxCell>
        <mxCell id="sOK9xL0Q-kKHLEvzhYfY-21" value="" style="endArrow=none;html=1;" parent="1" edge="1">
          <mxGeometry width="50" height="50" relative="1" as="geometry">
            <mxPoint x="1620" y="680" as="sourcePoint" />
            <mxPoint x="1620" y="630" as="targetPoint" />
          </mxGeometry>
        </mxCell>
        <mxCell id="sOK9xL0Q-kKHLEvzhYfY-22" value="" style="endArrow=none;html=1;entryX=0.5;entryY=0;entryDx=0;entryDy=0;" parent="1" target="sOK9xL0Q-kKHLEvzhYfY-17" edge="1">
          <mxGeometry width="50" height="50" relative="1" as="geometry">
            <mxPoint x="1540" y="700" as="sourcePoint" />
            <mxPoint x="1710" y="680" as="targetPoint" />
            <Array as="points">
              <mxPoint x="1540" y="680" />
              <mxPoint x="1700" y="680" />
            </Array>
          </mxGeometry>
        </mxCell>
        <mxCell id="sOK9xL0Q-kKHLEvzhYfY-23" value="James McCulloch" style="whiteSpace=wrap;html=1;" parent="1" vertex="1">
          <mxGeometry x="1800" y="700" width="120" height="60" as="geometry" />
        </mxCell>
        <mxCell id="sOK9xL0Q-kKHLEvzhYfY-24" value="Evan Sun" style="whiteSpace=wrap;html=1;" parent="1" vertex="1">
          <mxGeometry x="1960" y="700" width="120" height="60" as="geometry" />
        </mxCell>
        <mxCell id="sOK9xL0Q-kKHLEvzhYfY-25" value="Caroline Longley" style="whiteSpace=wrap;html=1;" parent="1" vertex="1">
          <mxGeometry x="1800" y="600" width="120" height="60" as="geometry" />
        </mxCell>
        <mxCell id="sOK9xL0Q-kKHLEvzhYfY-26" value="Eleni Thwaites" style="whiteSpace=wrap;html=1;" parent="1" vertex="1">
          <mxGeometry x="1960" y="600" width="120" height="60" as="geometry" />
        </mxCell>
        <mxCell id="sOK9xL0Q-kKHLEvzhYfY-27" value="" style="endArrow=none;html=1;exitX=1;exitY=0.5;exitDx=0;exitDy=0;entryX=0;entryY=0.5;entryDx=0;entryDy=0;" parent="1" source="sOK9xL0Q-kKHLEvzhYfY-25" target="sOK9xL0Q-kKHLEvzhYfY-26" edge="1">
          <mxGeometry width="50" height="50" relative="1" as="geometry">
            <mxPoint x="2170" y="900" as="sourcePoint" />
            <mxPoint x="2220" y="850" as="targetPoint" />
          </mxGeometry>
        </mxCell>
        <mxCell id="sOK9xL0Q-kKHLEvzhYfY-28" value="" style="endArrow=none;html=1;" parent="1" edge="1">
          <mxGeometry width="50" height="50" relative="1" as="geometry">
            <mxPoint x="1940" y="680" as="sourcePoint" />
            <mxPoint x="1940" y="630" as="targetPoint" />
          </mxGeometry>
        </mxCell>
        <mxCell id="sOK9xL0Q-kKHLEvzhYfY-29" value="" style="endArrow=none;html=1;entryX=0.5;entryY=0;entryDx=0;entryDy=0;" parent="1" target="sOK9xL0Q-kKHLEvzhYfY-24" edge="1">
          <mxGeometry width="50" height="50" relative="1" as="geometry">
            <mxPoint x="1860" y="700" as="sourcePoint" />
            <mxPoint x="2030" y="680" as="targetPoint" />
            <Array as="points">
              <mxPoint x="1860" y="680" />
              <mxPoint x="2020" y="680" />
            </Array>
          </mxGeometry>
        </mxCell>
        <mxCell id="sOK9xL0Q-kKHLEvzhYfY-30" value="PIppa Linden-Howes" style="whiteSpace=wrap;html=1;" parent="1" vertex="1">
          <mxGeometry x="2120" y="700" width="120" height="60" as="geometry" />
        </mxCell>
        <mxCell id="sOK9xL0Q-kKHLEvzhYfY-31" value="Hannah West" style="whiteSpace=wrap;html=1;" parent="1" vertex="1">
          <mxGeometry x="2280" y="700" width="120" height="60" as="geometry" />
        </mxCell>
        <mxCell id="sOK9xL0Q-kKHLEvzhYfY-32" value="Eddie Day" style="whiteSpace=wrap;html=1;" parent="1" vertex="1">
          <mxGeometry x="2120" y="600" width="120" height="60" as="geometry" />
        </mxCell>
        <mxCell id="sOK9xL0Q-kKHLEvzhYfY-33" value="Isabella Dobson" style="whiteSpace=wrap;html=1;" parent="1" vertex="1">
          <mxGeometry x="2280" y="600" width="120" height="60" as="geometry" />
        </mxCell>
        <mxCell id="sOK9xL0Q-kKHLEvzhYfY-34" value="" style="endArrow=none;html=1;exitX=1;exitY=0.5;exitDx=0;exitDy=0;entryX=0;entryY=0.5;entryDx=0;entryDy=0;" parent="1" source="sOK9xL0Q-kKHLEvzhYfY-32" target="sOK9xL0Q-kKHLEvzhYfY-33" edge="1">
          <mxGeometry width="50" height="50" relative="1" as="geometry">
            <mxPoint x="2490" y="900" as="sourcePoint" />
            <mxPoint x="2540" y="850" as="targetPoint" />
          </mxGeometry>
        </mxCell>
        <mxCell id="sOK9xL0Q-kKHLEvzhYfY-35" value="" style="endArrow=none;html=1;" parent="1" edge="1">
          <mxGeometry width="50" height="50" relative="1" as="geometry">
            <mxPoint x="2260" y="680" as="sourcePoint" />
            <mxPoint x="2260" y="630" as="targetPoint" />
          </mxGeometry>
        </mxCell>
        <mxCell id="sOK9xL0Q-kKHLEvzhYfY-36" value="" style="endArrow=none;html=1;entryX=0.5;entryY=0;entryDx=0;entryDy=0;" parent="1" target="sOK9xL0Q-kKHLEvzhYfY-31" edge="1">
          <mxGeometry width="50" height="50" relative="1" as="geometry">
            <mxPoint x="2180" y="700" as="sourcePoint" />
            <mxPoint x="2350" y="680" as="targetPoint" />
            <Array as="points">
              <mxPoint x="2180" y="680" />
              <mxPoint x="2340" y="680" />
            </Array>
          </mxGeometry>
        </mxCell>
        <mxCell id="sOK9xL0Q-kKHLEvzhYfY-37" value="Kiana Moradian" style="whiteSpace=wrap;html=1;" parent="1" vertex="1">
          <mxGeometry x="2440" y="700" width="120" height="60" as="geometry" />
        </mxCell>
        <mxCell id="sOK9xL0Q-kKHLEvzhYfY-38" value="Gauri Kumar" style="whiteSpace=wrap;html=1;" parent="1" vertex="1">
          <mxGeometry x="2600" y="700" width="120" height="60" as="geometry" />
        </mxCell>
        <mxCell id="sOK9xL0Q-kKHLEvzhYfY-39" value="Tim Western" style="whiteSpace=wrap;html=1;" parent="1" vertex="1">
          <mxGeometry x="2440" y="600" width="120" height="60" as="geometry" />
        </mxCell>
        <mxCell id="sOK9xL0Q-kKHLEvzhYfY-40" value="Bahar Ganjvar" style="whiteSpace=wrap;html=1;" parent="1" vertex="1">
          <mxGeometry x="2600" y="600" width="120" height="60" as="geometry" />
        </mxCell>
        <mxCell id="sOK9xL0Q-kKHLEvzhYfY-41" value="" style="endArrow=none;html=1;exitX=1;exitY=0.5;exitDx=0;exitDy=0;entryX=0;entryY=0.5;entryDx=0;entryDy=0;" parent="1" source="sOK9xL0Q-kKHLEvzhYfY-39" target="sOK9xL0Q-kKHLEvzhYfY-40" edge="1">
          <mxGeometry width="50" height="50" relative="1" as="geometry">
            <mxPoint x="2810" y="900" as="sourcePoint" />
            <mxPoint x="2860" y="850" as="targetPoint" />
          </mxGeometry>
        </mxCell>
        <mxCell id="sOK9xL0Q-kKHLEvzhYfY-42" value="" style="endArrow=none;html=1;" parent="1" edge="1">
          <mxGeometry width="50" height="50" relative="1" as="geometry">
            <mxPoint x="2580" y="680" as="sourcePoint" />
            <mxPoint x="2580" y="630" as="targetPoint" />
          </mxGeometry>
        </mxCell>
        <mxCell id="sOK9xL0Q-kKHLEvzhYfY-43" value="" style="endArrow=none;html=1;entryX=0.5;entryY=0;entryDx=0;entryDy=0;" parent="1" target="sOK9xL0Q-kKHLEvzhYfY-38" edge="1">
          <mxGeometry width="50" height="50" relative="1" as="geometry">
            <mxPoint x="2500" y="700" as="sourcePoint" />
            <mxPoint x="2670" y="680" as="targetPoint" />
            <Array as="points">
              <mxPoint x="2500" y="680" />
              <mxPoint x="2660" y="680" />
            </Array>
          </mxGeometry>
        </mxCell>
        <mxCell id="sOK9xL0Q-kKHLEvzhYfY-44" value="Lottie Tellyn" style="whiteSpace=wrap;html=1;" parent="1" vertex="1">
          <mxGeometry x="2760" y="700" width="120" height="60" as="geometry" />
        </mxCell>
        <mxCell id="sOK9xL0Q-kKHLEvzhYfY-45" value="Euan Dyer" style="whiteSpace=wrap;html=1;" parent="1" vertex="1">
          <mxGeometry x="2920" y="700" width="120" height="60" as="geometry" />
        </mxCell>
        <mxCell id="sOK9xL0Q-kKHLEvzhYfY-46" value="Nayah Thu" style="whiteSpace=wrap;html=1;" parent="1" vertex="1">
          <mxGeometry x="2760" y="600" width="120" height="60" as="geometry" />
        </mxCell>
        <mxCell id="sOK9xL0Q-kKHLEvzhYfY-47" value="Theo Iosif" style="whiteSpace=wrap;html=1;" parent="1" vertex="1">
          <mxGeometry x="2920" y="600" width="120" height="60" as="geometry" />
        </mxCell>
        <mxCell id="sOK9xL0Q-kKHLEvzhYfY-48" value="" style="endArrow=none;html=1;exitX=1;exitY=0.5;exitDx=0;exitDy=0;entryX=0;entryY=0.5;entryDx=0;entryDy=0;" parent="1" source="sOK9xL0Q-kKHLEvzhYfY-46" target="sOK9xL0Q-kKHLEvzhYfY-47" edge="1">
          <mxGeometry width="50" height="50" relative="1" as="geometry">
            <mxPoint x="3130" y="900" as="sourcePoint" />
            <mxPoint x="3180" y="850" as="targetPoint" />
          </mxGeometry>
        </mxCell>
        <mxCell id="sOK9xL0Q-kKHLEvzhYfY-49" value="" style="endArrow=none;html=1;" parent="1" edge="1">
          <mxGeometry width="50" height="50" relative="1" as="geometry">
            <mxPoint x="2900" y="680" as="sourcePoint" />
            <mxPoint x="2900" y="630" as="targetPoint" />
          </mxGeometry>
        </mxCell>
        <mxCell id="sOK9xL0Q-kKHLEvzhYfY-50" value="" style="endArrow=none;html=1;entryX=0.5;entryY=0;entryDx=0;entryDy=0;" parent="1" target="sOK9xL0Q-kKHLEvzhYfY-45" edge="1">
          <mxGeometry width="50" height="50" relative="1" as="geometry">
            <mxPoint x="2820" y="700" as="sourcePoint" />
            <mxPoint x="2990" y="680" as="targetPoint" />
            <Array as="points">
              <mxPoint x="2820" y="680" />
              <mxPoint x="2980" y="680" />
            </Array>
          </mxGeometry>
        </mxCell>
        <mxCell id="sOK9xL0Q-kKHLEvzhYfY-58" value="Rafaj Faraj" style="whiteSpace=wrap;html=1;" parent="1" vertex="1">
          <mxGeometry x="3480" y="700" width="120" height="60" as="geometry" />
        </mxCell>
        <mxCell id="sOK9xL0Q-kKHLEvzhYfY-59" value="Jacob Stevens" style="whiteSpace=wrap;html=1;" parent="1" vertex="1">
          <mxGeometry x="3640" y="700" width="120" height="60" as="geometry" />
        </mxCell>
        <mxCell id="sOK9xL0Q-kKHLEvzhYfY-60" value="Isabel Howarth" style="whiteSpace=wrap;html=1;" parent="1" vertex="1">
          <mxGeometry x="3400" y="600" width="120" height="60" as="geometry" />
        </mxCell>
        <mxCell id="sOK9xL0Q-kKHLEvzhYfY-61" value="Benjamin Hughes" style="whiteSpace=wrap;html=1;" parent="1" vertex="1">
          <mxGeometry x="3560" y="600" width="120" height="60" as="geometry" />
        </mxCell>
        <mxCell id="sOK9xL0Q-kKHLEvzhYfY-62" value="" style="endArrow=none;html=1;exitX=1;exitY=0.5;exitDx=0;exitDy=0;entryX=0;entryY=0.5;entryDx=0;entryDy=0;" parent="1" source="sOK9xL0Q-kKHLEvzhYfY-60" target="sOK9xL0Q-kKHLEvzhYfY-61" edge="1">
          <mxGeometry width="50" height="50" relative="1" as="geometry">
            <mxPoint x="3770" y="900" as="sourcePoint" />
            <mxPoint x="3820" y="850" as="targetPoint" />
          </mxGeometry>
        </mxCell>
        <mxCell id="sOK9xL0Q-kKHLEvzhYfY-64" value="" style="endArrow=none;html=1;entryX=0.5;entryY=0;entryDx=0;entryDy=0;" parent="1" target="sOK9xL0Q-kKHLEvzhYfY-59" edge="1">
          <mxGeometry width="50" height="50" relative="1" as="geometry">
            <mxPoint x="3540" y="700" as="sourcePoint" />
            <mxPoint x="3710" y="680" as="targetPoint" />
            <Array as="points">
              <mxPoint x="3540" y="680" />
              <mxPoint x="3700" y="680" />
            </Array>
          </mxGeometry>
        </mxCell>
        <mxCell id="sOK9xL0Q-kKHLEvzhYfY-65" value="Louis Kemp" style="whiteSpace=wrap;html=1;" parent="1" vertex="1">
          <mxGeometry x="3720" y="600" width="120" height="60" as="geometry" />
        </mxCell>
        <mxCell id="sOK9xL0Q-kKHLEvzhYfY-66" value="" style="endArrow=none;html=1;entryX=0;entryY=0.5;entryDx=0;entryDy=0;" parent="1" target="sOK9xL0Q-kKHLEvzhYfY-65" edge="1">
          <mxGeometry width="50" height="50" relative="1" as="geometry">
            <mxPoint x="3680" y="630" as="sourcePoint" />
            <mxPoint x="3570" y="640" as="targetPoint" />
          </mxGeometry>
        </mxCell>
        <mxCell id="sOK9xL0Q-kKHLEvzhYfY-67" value="Shaunak Desai" style="whiteSpace=wrap;html=1;" parent="1" vertex="1">
          <mxGeometry x="3880" y="700" width="120" height="60" as="geometry" />
        </mxCell>
        <mxCell id="sOK9xL0Q-kKHLEvzhYfY-68" value="Edward Chesterton" style="whiteSpace=wrap;html=1;" parent="1" vertex="1">
          <mxGeometry x="4040" y="700" width="120" height="60" as="geometry" />
        </mxCell>
        <mxCell id="sOK9xL0Q-kKHLEvzhYfY-69" value="Cecily Moorsom" style="whiteSpace=wrap;html=1;" parent="1" vertex="1">
          <mxGeometry x="3880" y="600" width="120" height="60" as="geometry" />
        </mxCell>
        <mxCell id="sOK9xL0Q-kKHLEvzhYfY-70" value="Owen Chan" style="whiteSpace=wrap;html=1;" parent="1" vertex="1">
          <mxGeometry x="4040" y="600" width="120" height="60" as="geometry" />
        </mxCell>
        <mxCell id="sOK9xL0Q-kKHLEvzhYfY-71" value="" style="endArrow=none;html=1;exitX=1;exitY=0.5;exitDx=0;exitDy=0;entryX=0;entryY=0.5;entryDx=0;entryDy=0;" parent="1" source="sOK9xL0Q-kKHLEvzhYfY-69" target="sOK9xL0Q-kKHLEvzhYfY-70" edge="1">
          <mxGeometry width="50" height="50" relative="1" as="geometry">
            <mxPoint x="4250" y="900" as="sourcePoint" />
            <mxPoint x="4300" y="850" as="targetPoint" />
          </mxGeometry>
        </mxCell>
        <mxCell id="sOK9xL0Q-kKHLEvzhYfY-72" value="" style="endArrow=none;html=1;" parent="1" edge="1">
          <mxGeometry width="50" height="50" relative="1" as="geometry">
            <mxPoint x="4020" y="680" as="sourcePoint" />
            <mxPoint x="4020" y="630" as="targetPoint" />
          </mxGeometry>
        </mxCell>
        <mxCell id="sOK9xL0Q-kKHLEvzhYfY-73" value="" style="endArrow=none;html=1;entryX=0.5;entryY=0;entryDx=0;entryDy=0;" parent="1" target="sOK9xL0Q-kKHLEvzhYfY-68" edge="1">
          <mxGeometry width="50" height="50" relative="1" as="geometry">
            <mxPoint x="3940" y="700" as="sourcePoint" />
            <mxPoint x="4110" y="680" as="targetPoint" />
            <Array as="points">
              <mxPoint x="3940" y="680" />
              <mxPoint x="4100" y="680" />
            </Array>
          </mxGeometry>
        </mxCell>
        <mxCell id="G9G2QMmGk5GcdjE_9JgA-2" value="" style="endArrow=none;html=1;entryX=0.5;entryY=0;entryDx=0;entryDy=0;" parent="1" edge="1">
          <mxGeometry width="50" height="50" relative="1" as="geometry">
            <mxPoint x="260" y="600" as="sourcePoint" />
            <mxPoint x="420" y="600" as="targetPoint" />
            <Array as="points">
              <mxPoint x="260" y="580" />
              <mxPoint x="420" y="580" />
            </Array>
          </mxGeometry>
        </mxCell>
        <mxCell id="G9G2QMmGk5GcdjE_9JgA-3" value="" style="endArrow=none;html=1;" parent="1" edge="1">
          <mxGeometry width="50" height="50" relative="1" as="geometry">
            <mxPoint x="340" y="580" as="sourcePoint" />
            <mxPoint x="340" y="530" as="targetPoint" />
          </mxGeometry>
        </mxCell>
        <mxCell id="G9G2QMmGk5GcdjE_9JgA-4" value="Emma Bogert" style="whiteSpace=wrap;html=1;" parent="1" vertex="1">
          <mxGeometry x="200" y="500" width="120" height="60" as="geometry" />
        </mxCell>
        <mxCell id="G9G2QMmGk5GcdjE_9JgA-5" value="Catherine Dixon" style="whiteSpace=wrap;html=1;" parent="1" vertex="1">
          <mxGeometry x="360" y="500" width="120" height="60" as="geometry" />
        </mxCell>
        <mxCell id="G9G2QMmGk5GcdjE_9JgA-6" value="" style="endArrow=none;html=1;entryX=1;entryY=0.5;entryDx=0;entryDy=0;" parent="1" target="G9G2QMmGk5GcdjE_9JgA-4" edge="1">
          <mxGeometry width="50" height="50" relative="1" as="geometry">
            <mxPoint x="360" y="530" as="sourcePoint" />
            <mxPoint x="770" y="650" as="targetPoint" />
          </mxGeometry>
        </mxCell>
        <mxCell id="G9G2QMmGk5GcdjE_9JgA-7" value="" style="endArrow=none;html=1;entryX=0.5;entryY=0;entryDx=0;entryDy=0;" parent="1" edge="1">
          <mxGeometry width="50" height="50" relative="1" as="geometry">
            <mxPoint x="3540" y="630" as="sourcePoint" />
            <mxPoint x="3700" y="630" as="targetPoint" />
            <Array as="points">
              <mxPoint x="3540" y="670" />
              <mxPoint x="3620" y="670" />
              <mxPoint x="3700" y="670" />
            </Array>
          </mxGeometry>
        </mxCell>
        <mxCell id="G9G2QMmGk5GcdjE_9JgA-8" value="" style="endArrow=none;html=1;" parent="1" edge="1">
          <mxGeometry width="50" height="50" relative="1" as="geometry">
            <mxPoint x="3620" y="680" as="sourcePoint" />
            <mxPoint x="3620" y="670" as="targetPoint" />
          </mxGeometry>
        </mxCell>
        <mxCell id="bXorVS4qEcdGj8HX04dZ-1" value="Kate Harkness" style="whiteSpace=wrap;html=1;" parent="1" vertex="1">
          <mxGeometry x="4200" y="700" width="120" height="60" as="geometry" />
        </mxCell>
        <mxCell id="bXorVS4qEcdGj8HX04dZ-2" value="Zakariya Bux" style="whiteSpace=wrap;html=1;" parent="1" vertex="1">
          <mxGeometry x="4360" y="700" width="120" height="60" as="geometry" />
        </mxCell>
        <mxCell id="bXorVS4qEcdGj8HX04dZ-3" value="Max Risher" style="whiteSpace=wrap;html=1;" parent="1" vertex="1">
          <mxGeometry x="4200" y="600" width="120" height="60" as="geometry" />
        </mxCell>
        <mxCell id="bXorVS4qEcdGj8HX04dZ-4" value="George Adams" style="whiteSpace=wrap;html=1;" parent="1" vertex="1">
          <mxGeometry x="4360" y="600" width="120" height="60" as="geometry" />
        </mxCell>
        <mxCell id="bXorVS4qEcdGj8HX04dZ-5" value="" style="endArrow=none;html=1;exitX=1;exitY=0.5;exitDx=0;exitDy=0;entryX=0;entryY=0.5;entryDx=0;entryDy=0;" parent="1" source="bXorVS4qEcdGj8HX04dZ-3" target="bXorVS4qEcdGj8HX04dZ-4" edge="1">
          <mxGeometry width="50" height="50" relative="1" as="geometry">
            <mxPoint x="4570" y="900" as="sourcePoint" />
            <mxPoint x="4620" y="850" as="targetPoint" />
          </mxGeometry>
        </mxCell>
        <mxCell id="bXorVS4qEcdGj8HX04dZ-6" value="" style="endArrow=none;html=1;" parent="1" edge="1">
          <mxGeometry width="50" height="50" relative="1" as="geometry">
            <mxPoint x="4340" y="680" as="sourcePoint" />
            <mxPoint x="4340" y="630" as="targetPoint" />
          </mxGeometry>
        </mxCell>
        <mxCell id="bXorVS4qEcdGj8HX04dZ-7" value="" style="endArrow=none;html=1;entryX=0.5;entryY=0;entryDx=0;entryDy=0;" parent="1" target="bXorVS4qEcdGj8HX04dZ-2" edge="1">
          <mxGeometry width="50" height="50" relative="1" as="geometry">
            <mxPoint x="4260" y="700" as="sourcePoint" />
            <mxPoint x="4430" y="680" as="targetPoint" />
            <Array as="points">
              <mxPoint x="4260" y="680" />
              <mxPoint x="4420" y="680" />
            </Array>
          </mxGeometry>
        </mxCell>
        <mxCell id="bXorVS4qEcdGj8HX04dZ-8" value="Gabrielle Murray" style="whiteSpace=wrap;html=1;" parent="1" vertex="1">
          <mxGeometry x="4520" y="700" width="120" height="60" as="geometry" />
        </mxCell>
        <mxCell id="bXorVS4qEcdGj8HX04dZ-9" value="Sam Wentworth" style="whiteSpace=wrap;html=1;" parent="1" vertex="1">
          <mxGeometry x="4680" y="700" width="120" height="60" as="geometry" />
        </mxCell>
        <mxCell id="bXorVS4qEcdGj8HX04dZ-10" value="Jack Pickering" style="whiteSpace=wrap;html=1;" parent="1" vertex="1">
          <mxGeometry x="4600" y="600" width="120" height="60" as="geometry" />
        </mxCell>
        <mxCell id="bXorVS4qEcdGj8HX04dZ-11" value="Jana Nedelkoska" style="whiteSpace=wrap;html=1;" parent="1" vertex="1">
          <mxGeometry x="4760" y="600" width="120" height="60" as="geometry" />
        </mxCell>
        <mxCell id="bXorVS4qEcdGj8HX04dZ-12" value="" style="endArrow=none;html=1;exitX=1;exitY=0.5;exitDx=0;exitDy=0;entryX=0;entryY=0.5;entryDx=0;entryDy=0;" parent="1" source="bXorVS4qEcdGj8HX04dZ-10" target="bXorVS4qEcdGj8HX04dZ-11" edge="1">
          <mxGeometry width="50" height="50" relative="1" as="geometry">
            <mxPoint x="4970" y="900" as="sourcePoint" />
            <mxPoint x="5020" y="850" as="targetPoint" />
          </mxGeometry>
        </mxCell>
        <mxCell id="bXorVS4qEcdGj8HX04dZ-13" value="" style="endArrow=none;html=1;exitX=0.5;exitY=0;exitDx=0;exitDy=0;" parent="1" source="bXorVS4qEcdGj8HX04dZ-9" edge="1">
          <mxGeometry width="50" height="50" relative="1" as="geometry">
            <mxPoint x="4740" y="680" as="sourcePoint" />
            <mxPoint x="4740" y="630" as="targetPoint" />
          </mxGeometry>
        </mxCell>
        <mxCell id="bXorVS4qEcdGj8HX04dZ-14" value="" style="endArrow=none;html=1;entryX=0.5;entryY=0;entryDx=0;entryDy=0;exitX=0.5;exitY=0;exitDx=0;exitDy=0;" parent="1" source="bXorVS4qEcdGj8HX04dZ-8" target="GV1GWxp89_lenmdbuiy8-16" edge="1">
          <mxGeometry width="50" height="50" relative="1" as="geometry">
            <mxPoint x="4660" y="700" as="sourcePoint" />
            <mxPoint x="4820.000000000001" y="700" as="targetPoint" />
            <Array as="points">
              <mxPoint x="4580" y="680" />
              <mxPoint x="4900" y="680" />
            </Array>
          </mxGeometry>
        </mxCell>
        <mxCell id="qaUDRH6c5ygT62d7AidV-2" value="May McEvoy" style="whiteSpace=wrap;html=1;" parent="1" vertex="1">
          <mxGeometry x="360" y="700" width="120" height="60" as="geometry" />
        </mxCell>
        <mxCell id="qaUDRH6c5ygT62d7AidV-3" value="Ivan Vasenov" style="whiteSpace=wrap;html=1;" parent="1" vertex="1">
          <mxGeometry x="520" y="700" width="120" height="60" as="geometry" />
        </mxCell>
        <mxCell id="qaUDRH6c5ygT62d7AidV-4" value="Rachel Tait" style="whiteSpace=wrap;html=1;" parent="1" vertex="1">
          <mxGeometry x="360" y="600" width="120" height="60" as="geometry" />
        </mxCell>
        <mxCell id="qaUDRH6c5ygT62d7AidV-5" value="William Towler" style="whiteSpace=wrap;html=1;" parent="1" vertex="1">
          <mxGeometry x="520" y="600" width="120" height="60" as="geometry" />
        </mxCell>
        <mxCell id="qaUDRH6c5ygT62d7AidV-6" value="" style="endArrow=none;html=1;exitX=1;exitY=0.5;exitDx=0;exitDy=0;entryX=0;entryY=0.5;entryDx=0;entryDy=0;" parent="1" source="qaUDRH6c5ygT62d7AidV-4" target="qaUDRH6c5ygT62d7AidV-5" edge="1">
          <mxGeometry width="50" height="50" relative="1" as="geometry">
            <mxPoint x="730" y="900" as="sourcePoint" />
            <mxPoint x="780" y="850" as="targetPoint" />
          </mxGeometry>
        </mxCell>
        <mxCell id="qaUDRH6c5ygT62d7AidV-7" value="" style="endArrow=none;html=1;" parent="1" edge="1">
          <mxGeometry width="50" height="50" relative="1" as="geometry">
            <mxPoint x="500" y="680" as="sourcePoint" />
            <mxPoint x="500" y="630.0000000000002" as="targetPoint" />
          </mxGeometry>
        </mxCell>
        <mxCell id="qaUDRH6c5ygT62d7AidV-8" value="" style="endArrow=none;html=1;entryX=0.5;entryY=0;entryDx=0;entryDy=0;" parent="1" target="qaUDRH6c5ygT62d7AidV-3" edge="1">
          <mxGeometry width="50" height="50" relative="1" as="geometry">
            <mxPoint x="420" y="700" as="sourcePoint" />
            <mxPoint x="590" y="680" as="targetPoint" />
            <Array as="points">
              <mxPoint x="420" y="680" />
              <mxPoint x="580" y="680" />
            </Array>
          </mxGeometry>
        </mxCell>
        <mxCell id="qaUDRH6c5ygT62d7AidV-10" value="Jacob Hubbard" style="whiteSpace=wrap;html=1;" parent="1" vertex="1">
          <mxGeometry x="680" y="700" width="120" height="60" as="geometry" />
        </mxCell>
        <mxCell id="qaUDRH6c5ygT62d7AidV-11" value="James Oakland" style="whiteSpace=wrap;html=1;" parent="1" vertex="1">
          <mxGeometry x="840" y="700" width="120" height="60" as="geometry" />
        </mxCell>
        <mxCell id="qaUDRH6c5ygT62d7AidV-12" value="Inés Borchers Arias" style="whiteSpace=wrap;html=1;" parent="1" vertex="1">
          <mxGeometry x="760" y="600" width="120" height="60" as="geometry" />
        </mxCell>
        <mxCell id="qaUDRH6c5ygT62d7AidV-13" value="Radu-Alexandru Iacob" style="whiteSpace=wrap;html=1;" parent="1" vertex="1">
          <mxGeometry x="920" y="600" width="120" height="60" as="geometry" />
        </mxCell>
        <mxCell id="qaUDRH6c5ygT62d7AidV-14" value="" style="endArrow=none;html=1;exitX=1;exitY=0.5;exitDx=0;exitDy=0;entryX=0;entryY=0.5;entryDx=0;entryDy=0;" parent="1" source="qaUDRH6c5ygT62d7AidV-12" target="qaUDRH6c5ygT62d7AidV-13" edge="1">
          <mxGeometry width="50" height="50" relative="1" as="geometry">
            <mxPoint x="1130" y="900" as="sourcePoint" />
            <mxPoint x="1180" y="850" as="targetPoint" />
          </mxGeometry>
        </mxCell>
        <mxCell id="qaUDRH6c5ygT62d7AidV-15" value="" style="endArrow=none;html=1;exitX=0.5;exitY=0;exitDx=0;exitDy=0;" parent="1" source="qaUDRH6c5ygT62d7AidV-11" edge="1">
          <mxGeometry width="50" height="50" relative="1" as="geometry">
            <mxPoint x="900" y="680" as="sourcePoint" />
            <mxPoint x="900" y="630" as="targetPoint" />
            <Array as="points">
              <mxPoint x="900" y="660" />
            </Array>
          </mxGeometry>
        </mxCell>
        <mxCell id="qaUDRH6c5ygT62d7AidV-16" value="" style="endArrow=none;html=1;entryX=0.5;entryY=0;entryDx=0;entryDy=0;" parent="1" target="qaUDRH6c5ygT62d7AidV-17" edge="1">
          <mxGeometry width="50" height="50" relative="1" as="geometry">
            <mxPoint x="740" y="700" as="sourcePoint" />
            <mxPoint x="910" y="680" as="targetPoint" />
            <Array as="points">
              <mxPoint x="740" y="680" />
              <mxPoint x="1060" y="680" />
            </Array>
          </mxGeometry>
        </mxCell>
        <mxCell id="qaUDRH6c5ygT62d7AidV-17" value="Bella Fosberry" style="whiteSpace=wrap;html=1;" parent="1" vertex="1">
          <mxGeometry x="1000" y="700" width="120" height="60" as="geometry" />
        </mxCell>
        <mxCell id="qaUDRH6c5ygT62d7AidV-19" value="Param Luhadiya" style="whiteSpace=wrap;html=1;" parent="1" vertex="1">
          <mxGeometry x="5000" y="700" width="120" height="60" as="geometry" />
        </mxCell>
        <mxCell id="qaUDRH6c5ygT62d7AidV-20" value="" style="whiteSpace=wrap;html=1;" parent="1" vertex="1">
          <mxGeometry x="5160" y="700" width="120" height="60" as="geometry" />
        </mxCell>
        <mxCell id="qaUDRH6c5ygT62d7AidV-21" value="Ellie Garrigan Mattar" style="whiteSpace=wrap;html=1;" parent="1" vertex="1">
          <mxGeometry x="5000" y="600" width="120" height="60" as="geometry" />
        </mxCell>
        <mxCell id="qaUDRH6c5ygT62d7AidV-22" value="Ben Crossley" style="whiteSpace=wrap;html=1;" parent="1" vertex="1">
          <mxGeometry x="5160" y="600" width="120" height="60" as="geometry" />
        </mxCell>
        <mxCell id="qaUDRH6c5ygT62d7AidV-23" value="" style="endArrow=none;html=1;exitX=1;exitY=0.5;exitDx=0;exitDy=0;entryX=0;entryY=0.5;entryDx=0;entryDy=0;" parent="1" source="qaUDRH6c5ygT62d7AidV-21" target="qaUDRH6c5ygT62d7AidV-22" edge="1">
          <mxGeometry width="50" height="50" relative="1" as="geometry">
            <mxPoint x="5370" y="900" as="sourcePoint" />
            <mxPoint x="5420" y="850" as="targetPoint" />
          </mxGeometry>
        </mxCell>
        <mxCell id="qaUDRH6c5ygT62d7AidV-24" value="" style="endArrow=none;html=1;" parent="1" edge="1">
          <mxGeometry width="50" height="50" relative="1" as="geometry">
            <mxPoint x="5140" y="680" as="sourcePoint" />
            <mxPoint x="5140" y="630" as="targetPoint" />
          </mxGeometry>
        </mxCell>
        <mxCell id="qaUDRH6c5ygT62d7AidV-25" value="" style="endArrow=none;html=1;entryX=0.5;entryY=0;entryDx=0;entryDy=0;" parent="1" target="qaUDRH6c5ygT62d7AidV-20" edge="1">
          <mxGeometry width="50" height="50" relative="1" as="geometry">
            <mxPoint x="5060" y="700" as="sourcePoint" />
            <mxPoint x="5230" y="680" as="targetPoint" />
            <Array as="points">
              <mxPoint x="5060" y="680" />
              <mxPoint x="5220" y="680" />
            </Array>
          </mxGeometry>
        </mxCell>
        <mxCell id="qaUDRH6c5ygT62d7AidV-33" value="Dara Thaker" style="whiteSpace=wrap;html=1;" parent="1" vertex="1">
          <mxGeometry x="5320" y="700" width="120" height="60" as="geometry" />
        </mxCell>
        <mxCell id="qaUDRH6c5ygT62d7AidV-34" value="Hazel Lockey" style="whiteSpace=wrap;html=1;" parent="1" vertex="1">
          <mxGeometry x="5480" y="700" width="120" height="60" as="geometry" />
        </mxCell>
        <mxCell id="qaUDRH6c5ygT62d7AidV-35" value="Susie Barrows" style="whiteSpace=wrap;html=1;" parent="1" vertex="1">
          <mxGeometry x="5320" y="600" width="120" height="60" as="geometry" />
        </mxCell>
        <mxCell id="qaUDRH6c5ygT62d7AidV-36" value="Katarina Javorcekova" style="whiteSpace=wrap;html=1;" parent="1" vertex="1">
          <mxGeometry x="5480" y="600" width="120" height="60" as="geometry" />
        </mxCell>
        <mxCell id="qaUDRH6c5ygT62d7AidV-37" value="" style="endArrow=none;html=1;exitX=1;exitY=0.5;exitDx=0;exitDy=0;entryX=0;entryY=0.5;entryDx=0;entryDy=0;" parent="1" source="qaUDRH6c5ygT62d7AidV-35" target="qaUDRH6c5ygT62d7AidV-36" edge="1">
          <mxGeometry width="50" height="50" relative="1" as="geometry">
            <mxPoint x="5690" y="900" as="sourcePoint" />
            <mxPoint x="5740" y="850" as="targetPoint" />
          </mxGeometry>
        </mxCell>
        <mxCell id="qaUDRH6c5ygT62d7AidV-38" value="" style="endArrow=none;html=1;exitX=0.5;exitY=0;exitDx=0;exitDy=0;" parent="1" source="qaUDRH6c5ygT62d7AidV-33" edge="1">
          <mxGeometry width="50" height="50" relative="1" as="geometry">
            <mxPoint x="5460" y="700" as="sourcePoint" />
            <mxPoint x="5700" y="700" as="targetPoint" />
            <Array as="points">
              <mxPoint x="5380" y="680" />
              <mxPoint x="5700" y="680" />
            </Array>
          </mxGeometry>
        </mxCell>
        <mxCell id="qaUDRH6c5ygT62d7AidV-39" value="Emily Jones" style="whiteSpace=wrap;html=1;" parent="1" vertex="1">
          <mxGeometry x="5640" y="600" width="120" height="60" as="geometry" />
        </mxCell>
        <mxCell id="qaUDRH6c5ygT62d7AidV-40" value="" style="endArrow=none;html=1;entryX=0;entryY=0.5;entryDx=0;entryDy=0;" parent="1" target="qaUDRH6c5ygT62d7AidV-39" edge="1">
          <mxGeometry width="50" height="50" relative="1" as="geometry">
            <mxPoint x="5600" y="630" as="sourcePoint" />
            <mxPoint x="5490" y="640" as="targetPoint" />
          </mxGeometry>
        </mxCell>
        <mxCell id="qaUDRH6c5ygT62d7AidV-41" value="" style="endArrow=none;html=1;entryX=0.5;entryY=0;entryDx=0;entryDy=0;" parent="1" edge="1">
          <mxGeometry width="50" height="50" relative="1" as="geometry">
            <mxPoint x="5460" y="630" as="sourcePoint" />
            <mxPoint x="5620" y="630" as="targetPoint" />
            <Array as="points">
              <mxPoint x="5460" y="670" />
              <mxPoint x="5540" y="670" />
              <mxPoint x="5620" y="670" />
            </Array>
          </mxGeometry>
        </mxCell>
        <mxCell id="qaUDRH6c5ygT62d7AidV-42" value="" style="endArrow=none;html=1;exitX=0.5;exitY=0;exitDx=0;exitDy=0;" parent="1" source="qaUDRH6c5ygT62d7AidV-34" edge="1">
          <mxGeometry width="50" height="50" relative="1" as="geometry">
            <mxPoint x="5540" y="680" as="sourcePoint" />
            <mxPoint x="5540" y="670" as="targetPoint" />
          </mxGeometry>
        </mxCell>
        <mxCell id="qaUDRH6c5ygT62d7AidV-43" value="Eleanor Clark" style="whiteSpace=wrap;html=1;" parent="1" vertex="1">
          <mxGeometry x="5640" y="700" width="120" height="60" as="geometry" />
        </mxCell>
        <mxCell id="qaUDRH6c5ygT62d7AidV-44" value="Margaux Latimer" style="whiteSpace=wrap;html=1;" parent="1" vertex="1">
          <mxGeometry x="5960" y="700" width="120" height="60" as="geometry" />
        </mxCell>
        <mxCell id="qaUDRH6c5ygT62d7AidV-45" value="Owen Cross" style="whiteSpace=wrap;html=1;" parent="1" vertex="1">
          <mxGeometry x="6120" y="700" width="120" height="60" as="geometry" />
        </mxCell>
        <mxCell id="qaUDRH6c5ygT62d7AidV-46" value="Michael Zajac" style="whiteSpace=wrap;html=1;" parent="1" vertex="1">
          <mxGeometry x="5960" y="600" width="120" height="60" as="geometry" />
        </mxCell>
        <mxCell id="qaUDRH6c5ygT62d7AidV-47" value="Evelyn &quot;Evie&quot; McGrory" style="whiteSpace=wrap;html=1;" parent="1" vertex="1">
          <mxGeometry x="6120" y="600" width="120" height="60" as="geometry" />
        </mxCell>
        <mxCell id="qaUDRH6c5ygT62d7AidV-48" value="" style="endArrow=none;html=1;exitX=1;exitY=0.5;exitDx=0;exitDy=0;entryX=0;entryY=0.5;entryDx=0;entryDy=0;" parent="1" source="qaUDRH6c5ygT62d7AidV-46" target="qaUDRH6c5ygT62d7AidV-47" edge="1">
          <mxGeometry width="50" height="50" relative="1" as="geometry">
            <mxPoint x="6330" y="900" as="sourcePoint" />
            <mxPoint x="6380" y="850" as="targetPoint" />
          </mxGeometry>
        </mxCell>
        <mxCell id="qaUDRH6c5ygT62d7AidV-49" value="" style="endArrow=none;html=1;" parent="1" edge="1">
          <mxGeometry width="50" height="50" relative="1" as="geometry">
            <mxPoint x="6100" y="680" as="sourcePoint" />
            <mxPoint x="6100" y="630.0000000000002" as="targetPoint" />
          </mxGeometry>
        </mxCell>
        <mxCell id="qaUDRH6c5ygT62d7AidV-50" value="" style="endArrow=none;html=1;entryX=0.5;entryY=0;entryDx=0;entryDy=0;" parent="1" target="qaUDRH6c5ygT62d7AidV-45" edge="1">
          <mxGeometry width="50" height="50" relative="1" as="geometry">
            <mxPoint x="6020" y="700" as="sourcePoint" />
            <mxPoint x="6190" y="680" as="targetPoint" />
            <Array as="points">
              <mxPoint x="6020" y="680" />
              <mxPoint x="6180" y="680" />
            </Array>
          </mxGeometry>
        </mxCell>
        <mxCell id="qaUDRH6c5ygT62d7AidV-51" value="Alice Gambles" style="whiteSpace=wrap;html=1;" parent="1" vertex="1">
          <mxGeometry x="5800" y="600" width="120" height="60" as="geometry" />
        </mxCell>
        <mxCell id="qaUDRH6c5ygT62d7AidV-52" value="" style="endArrow=none;html=1;entryX=0.5;entryY=0;entryDx=0;entryDy=0;" parent="1" edge="1">
          <mxGeometry width="50" height="50" relative="1" as="geometry">
            <mxPoint x="5860" y="600.0000000000002" as="sourcePoint" />
            <mxPoint x="6020" y="600.0000000000002" as="targetPoint" />
            <Array as="points">
              <mxPoint x="5860" y="580" />
              <mxPoint x="6020" y="580" />
            </Array>
          </mxGeometry>
        </mxCell>
        <mxCell id="qaUDRH6c5ygT62d7AidV-53" value="" style="endArrow=none;html=1;" parent="1" edge="1">
          <mxGeometry width="50" height="50" relative="1" as="geometry">
            <mxPoint x="5940" y="580.0000000000002" as="sourcePoint" />
            <mxPoint x="5940" y="530.0000000000002" as="targetPoint" />
          </mxGeometry>
        </mxCell>
        <mxCell id="qaUDRH6c5ygT62d7AidV-54" value="Rachel Lo" style="whiteSpace=wrap;html=1;" parent="1" vertex="1">
          <mxGeometry x="5800" y="500" width="120" height="60" as="geometry" />
        </mxCell>
        <mxCell id="qaUDRH6c5ygT62d7AidV-55" value="Ella Caufield" style="whiteSpace=wrap;html=1;" parent="1" vertex="1">
          <mxGeometry x="5960" y="500" width="120" height="60" as="geometry" />
        </mxCell>
        <mxCell id="qaUDRH6c5ygT62d7AidV-56" value="" style="endArrow=none;html=1;entryX=1;entryY=0.5;entryDx=0;entryDy=0;" parent="1" target="qaUDRH6c5ygT62d7AidV-54" edge="1">
          <mxGeometry width="50" height="50" relative="1" as="geometry">
            <mxPoint x="5960" y="530.0000000000002" as="sourcePoint" />
            <mxPoint x="6370" y="650" as="targetPoint" />
          </mxGeometry>
        </mxCell>
        <mxCell id="qaUDRH6c5ygT62d7AidV-62" value="Zander Fitzgerald" style="whiteSpace=wrap;html=1;" parent="1" vertex="1">
          <mxGeometry x="3080" y="700" width="120" height="60" as="geometry" />
        </mxCell>
        <mxCell id="qaUDRH6c5ygT62d7AidV-63" value="Eleanor Bogie" style="whiteSpace=wrap;html=1;" parent="1" vertex="1">
          <mxGeometry x="3240" y="700" width="120" height="60" as="geometry" />
        </mxCell>
        <mxCell id="qaUDRH6c5ygT62d7AidV-64" value="Megan Kyei" style="whiteSpace=wrap;html=1;" parent="1" vertex="1">
          <mxGeometry x="3080" y="600" width="120" height="60" as="geometry" />
        </mxCell>
        <mxCell id="qaUDRH6c5ygT62d7AidV-65" value="Nali Simukulwa" style="whiteSpace=wrap;html=1;" parent="1" vertex="1">
          <mxGeometry x="3240" y="600" width="120" height="60" as="geometry" />
        </mxCell>
        <mxCell id="qaUDRH6c5ygT62d7AidV-66" value="" style="endArrow=none;html=1;exitX=1;exitY=0.5;exitDx=0;exitDy=0;entryX=0;entryY=0.5;entryDx=0;entryDy=0;" parent="1" source="qaUDRH6c5ygT62d7AidV-64" target="qaUDRH6c5ygT62d7AidV-65" edge="1">
          <mxGeometry width="50" height="50" relative="1" as="geometry">
            <mxPoint x="3450" y="900" as="sourcePoint" />
            <mxPoint x="3500" y="850" as="targetPoint" />
          </mxGeometry>
        </mxCell>
        <mxCell id="qaUDRH6c5ygT62d7AidV-67" value="" style="endArrow=none;html=1;" parent="1" edge="1">
          <mxGeometry width="50" height="50" relative="1" as="geometry">
            <mxPoint x="3220" y="680" as="sourcePoint" />
            <mxPoint x="3220" y="630.0000000000002" as="targetPoint" />
          </mxGeometry>
        </mxCell>
        <mxCell id="qaUDRH6c5ygT62d7AidV-68" value="" style="endArrow=none;html=1;entryX=0.5;entryY=0;entryDx=0;entryDy=0;" parent="1" target="qaUDRH6c5ygT62d7AidV-63" edge="1">
          <mxGeometry width="50" height="50" relative="1" as="geometry">
            <mxPoint x="3140" y="700" as="sourcePoint" />
            <mxPoint x="3310" y="680" as="targetPoint" />
            <Array as="points">
              <mxPoint x="3140" y="680" />
              <mxPoint x="3300" y="680" />
            </Array>
          </mxGeometry>
        </mxCell>
        <mxCell id="qaUDRH6c5ygT62d7AidV-69" value="Joseph Clarke" style="whiteSpace=wrap;html=1;" parent="1" vertex="1">
          <mxGeometry x="6280" y="700" width="120" height="60" as="geometry" />
        </mxCell>
        <mxCell id="qaUDRH6c5ygT62d7AidV-70" value="Lucy Ritter" style="whiteSpace=wrap;html=1;" parent="1" vertex="1">
          <mxGeometry x="6440" y="700" width="120" height="60" as="geometry" />
        </mxCell>
        <mxCell id="qaUDRH6c5ygT62d7AidV-71" value="George Crosfield" style="whiteSpace=wrap;html=1;" parent="1" vertex="1">
          <mxGeometry x="6280" y="600" width="120" height="60" as="geometry" />
        </mxCell>
        <mxCell id="qaUDRH6c5ygT62d7AidV-72" value="Jess Hancock" style="whiteSpace=wrap;html=1;" parent="1" vertex="1">
          <mxGeometry x="6440" y="600" width="120" height="60" as="geometry" />
        </mxCell>
        <mxCell id="qaUDRH6c5ygT62d7AidV-73" value="" style="endArrow=none;html=1;exitX=1;exitY=0.5;exitDx=0;exitDy=0;entryX=0;entryY=0.5;entryDx=0;entryDy=0;" parent="1" source="qaUDRH6c5ygT62d7AidV-71" target="qaUDRH6c5ygT62d7AidV-72" edge="1">
          <mxGeometry width="50" height="50" relative="1" as="geometry">
            <mxPoint x="6650" y="900" as="sourcePoint" />
            <mxPoint x="6700" y="850" as="targetPoint" />
          </mxGeometry>
        </mxCell>
        <mxCell id="qaUDRH6c5ygT62d7AidV-74" value="" style="endArrow=none;html=1;" parent="1" edge="1">
          <mxGeometry width="50" height="50" relative="1" as="geometry">
            <mxPoint x="6420" y="680" as="sourcePoint" />
            <mxPoint x="6420" y="630.0000000000002" as="targetPoint" />
          </mxGeometry>
        </mxCell>
        <mxCell id="qaUDRH6c5ygT62d7AidV-75" value="" style="endArrow=none;html=1;entryX=0.5;entryY=0;entryDx=0;entryDy=0;" parent="1" target="qaUDRH6c5ygT62d7AidV-70" edge="1">
          <mxGeometry width="50" height="50" relative="1" as="geometry">
            <mxPoint x="6340" y="700" as="sourcePoint" />
            <mxPoint x="6510" y="680" as="targetPoint" />
            <Array as="points">
              <mxPoint x="6340" y="680" />
              <mxPoint x="6500" y="680" />
            </Array>
          </mxGeometry>
        </mxCell>
        <mxCell id="GV1GWxp89_lenmdbuiy8-1" value="Stanley Sau" style="whiteSpace=wrap;html=1;" parent="1" vertex="1">
          <mxGeometry x="6600" y="700" width="120" height="60" as="geometry" />
        </mxCell>
        <mxCell id="GV1GWxp89_lenmdbuiy8-2" value="Andy Jung" style="whiteSpace=wrap;html=1;" parent="1" vertex="1">
          <mxGeometry x="6760" y="700" width="120" height="60" as="geometry" />
        </mxCell>
        <mxCell id="GV1GWxp89_lenmdbuiy8-3" value="Anna Ahlberg" style="whiteSpace=wrap;html=1;" parent="1" vertex="1">
          <mxGeometry x="6600" y="600" width="120" height="60" as="geometry" />
        </mxCell>
        <mxCell id="GV1GWxp89_lenmdbuiy8-4" value="" style="whiteSpace=wrap;html=1;" parent="1" vertex="1">
          <mxGeometry x="6760" y="600" width="120" height="60" as="geometry" />
        </mxCell>
        <mxCell id="GV1GWxp89_lenmdbuiy8-5" value="" style="endArrow=none;html=1;exitX=1;exitY=0.5;exitDx=0;exitDy=0;entryX=0;entryY=0.5;entryDx=0;entryDy=0;" parent="1" source="GV1GWxp89_lenmdbuiy8-3" target="GV1GWxp89_lenmdbuiy8-4" edge="1">
          <mxGeometry width="50" height="50" relative="1" as="geometry">
            <mxPoint x="6970" y="900" as="sourcePoint" />
            <mxPoint x="7020" y="850" as="targetPoint" />
          </mxGeometry>
        </mxCell>
        <mxCell id="GV1GWxp89_lenmdbuiy8-6" value="" style="endArrow=none;html=1;" parent="1" edge="1">
          <mxGeometry width="50" height="50" relative="1" as="geometry">
            <mxPoint x="6740" y="680" as="sourcePoint" />
            <mxPoint x="6740" y="630.0000000000002" as="targetPoint" />
          </mxGeometry>
        </mxCell>
        <mxCell id="GV1GWxp89_lenmdbuiy8-7" value="" style="endArrow=none;html=1;entryX=0.5;entryY=0;entryDx=0;entryDy=0;" parent="1" target="GV1GWxp89_lenmdbuiy8-2" edge="1">
          <mxGeometry width="50" height="50" relative="1" as="geometry">
            <mxPoint x="6660" y="700" as="sourcePoint" />
            <mxPoint x="6830" y="680" as="targetPoint" />
            <Array as="points">
              <mxPoint x="6660" y="680" />
              <mxPoint x="6820" y="680" />
            </Array>
          </mxGeometry>
        </mxCell>
        <mxCell id="GV1GWxp89_lenmdbuiy8-8" value="Bridget Harrington" style="whiteSpace=wrap;html=1;" parent="1" vertex="1">
          <mxGeometry x="6920" y="700" width="120" height="60" as="geometry" />
        </mxCell>
        <mxCell id="GV1GWxp89_lenmdbuiy8-9" value="Jonny Rugg" style="whiteSpace=wrap;html=1;" parent="1" vertex="1">
          <mxGeometry x="7080" y="700" width="120" height="60" as="geometry" />
        </mxCell>
        <mxCell id="GV1GWxp89_lenmdbuiy8-10" value="Nick _______" style="whiteSpace=wrap;html=1;" parent="1" vertex="1">
          <mxGeometry x="7000" y="600" width="120" height="60" as="geometry" />
        </mxCell>
        <mxCell id="GV1GWxp89_lenmdbuiy8-11" value="Salmana Nadeem" style="whiteSpace=wrap;html=1;" parent="1" vertex="1">
          <mxGeometry x="7160" y="600" width="120" height="60" as="geometry" />
        </mxCell>
        <mxCell id="GV1GWxp89_lenmdbuiy8-12" value="" style="endArrow=none;html=1;exitX=1;exitY=0.5;exitDx=0;exitDy=0;entryX=0;entryY=0.5;entryDx=0;entryDy=0;" parent="1" source="GV1GWxp89_lenmdbuiy8-10" target="GV1GWxp89_lenmdbuiy8-11" edge="1">
          <mxGeometry width="50" height="50" relative="1" as="geometry">
            <mxPoint x="7370" y="900" as="sourcePoint" />
            <mxPoint x="7420" y="850" as="targetPoint" />
          </mxGeometry>
        </mxCell>
        <mxCell id="GV1GWxp89_lenmdbuiy8-13" value="" style="endArrow=none;html=1;exitX=0.5;exitY=0;exitDx=0;exitDy=0;" parent="1" source="GV1GWxp89_lenmdbuiy8-9" edge="1">
          <mxGeometry width="50" height="50" relative="1" as="geometry">
            <mxPoint x="7140" y="680" as="sourcePoint" />
            <mxPoint x="7140" y="630.0000000000002" as="targetPoint" />
          </mxGeometry>
        </mxCell>
        <mxCell id="GV1GWxp89_lenmdbuiy8-14" value="" style="endArrow=none;html=1;entryX=0.5;entryY=0;entryDx=0;entryDy=0;" parent="1" target="GV1GWxp89_lenmdbuiy8-15" edge="1">
          <mxGeometry width="50" height="50" relative="1" as="geometry">
            <mxPoint x="6980" y="700" as="sourcePoint" />
            <mxPoint x="7150" y="680" as="targetPoint" />
            <Array as="points">
              <mxPoint x="6980" y="680" />
              <mxPoint x="7300" y="680" />
            </Array>
          </mxGeometry>
        </mxCell>
        <mxCell id="GV1GWxp89_lenmdbuiy8-15" value="Safwan Elhaj-Houssen" style="whiteSpace=wrap;html=1;" parent="1" vertex="1">
          <mxGeometry x="7240" y="700" width="120" height="60" as="geometry" />
        </mxCell>
        <mxCell id="GV1GWxp89_lenmdbuiy8-16" value="Morgan Richardson" style="whiteSpace=wrap;html=1;" parent="1" vertex="1">
          <mxGeometry x="4840" y="700" width="120" height="60" as="geometry" />
        </mxCell>
        <mxCell id="p7EbD0Zb6H1uiyqI-eJG-1" value="Barnaby Colvin" style="whiteSpace=wrap;html=1;" vertex="1" parent="1">
          <mxGeometry x="7400" y="700" width="120" height="60" as="geometry" />
        </mxCell>
        <mxCell id="p7EbD0Zb6H1uiyqI-eJG-2" value="Sumayyah Siddiqui" style="whiteSpace=wrap;html=1;" vertex="1" parent="1">
          <mxGeometry x="7560" y="700" width="120" height="60" as="geometry" />
        </mxCell>
        <mxCell id="p7EbD0Zb6H1uiyqI-eJG-3" value="Agnieszka Wierzchucka" style="whiteSpace=wrap;html=1;" vertex="1" parent="1">
          <mxGeometry x="7400" y="600" width="120" height="60" as="geometry" />
        </mxCell>
        <mxCell id="p7EbD0Zb6H1uiyqI-eJG-4" value="Aryaman Gupta" style="whiteSpace=wrap;html=1;" vertex="1" parent="1">
          <mxGeometry x="7560" y="600" width="120" height="60" as="geometry" />
        </mxCell>
        <mxCell id="p7EbD0Zb6H1uiyqI-eJG-5" value="" style="endArrow=none;html=1;exitX=1;exitY=0.5;exitDx=0;exitDy=0;entryX=0;entryY=0.5;entryDx=0;entryDy=0;" edge="1" parent="1" source="p7EbD0Zb6H1uiyqI-eJG-3" target="p7EbD0Zb6H1uiyqI-eJG-4">
          <mxGeometry width="50" height="50" relative="1" as="geometry">
            <mxPoint x="7770" y="900" as="sourcePoint" />
            <mxPoint x="7820" y="850" as="targetPoint" />
          </mxGeometry>
        </mxCell>
        <mxCell id="p7EbD0Zb6H1uiyqI-eJG-6" value="" style="endArrow=none;html=1;" edge="1" parent="1">
          <mxGeometry width="50" height="50" relative="1" as="geometry">
            <mxPoint x="7540" y="680" as="sourcePoint" />
            <mxPoint x="7540" y="630.0000000000002" as="targetPoint" />
          </mxGeometry>
        </mxCell>
        <mxCell id="p7EbD0Zb6H1uiyqI-eJG-7" value="" style="endArrow=none;html=1;entryX=0.5;entryY=0;entryDx=0;entryDy=0;" edge="1" parent="1" target="p7EbD0Zb6H1uiyqI-eJG-2">
          <mxGeometry width="50" height="50" relative="1" as="geometry">
            <mxPoint x="7460" y="700" as="sourcePoint" />
            <mxPoint x="7630" y="680" as="targetPoint" />
            <Array as="points">
              <mxPoint x="7460" y="680" />
              <mxPoint x="7620" y="680" />
            </Array>
          </mxGeometry>
        </mxCell>
      </root>
    </mxGraphModel>
  </diagram>
</mxfile>
